<svg width="150px" height="30px" viewBox="0 0 150 30" xmlns="http://www.w3.org/2000/svg"><g fill="#000" fill-rule="nonzero"><path d="m.137.684h16.973v6.405h-9.665v4.873h7.418v6.432h-7.418v10.896h-7.308z"/><path d="m82.938 17.847v-17.245h7.01v28.688h-6.36l-10.81-17.05v17.05h-7v-28.688h6.324z"/><path d="m97.72 7.06h-5.67v-6.43h18.62v6.43h-5.62v22.23h-7.33z"/><path d="m112.83.602h7.33v28.688h-7.33z"/><path d="m61.724.602h-7.254-.055l-15.931 22.692-2.573-4.544c1.369-.575 2.765-1.56 3.723-3.066.821-1.286 1.423-2.984 1.423-5.201 0-3.148-1.095-5.967-3.476-7.828-1.588-1.232-4.38-2.053-8.869-2.053h-9.389v28.686h7.336v-22.254h2.71c1.013 0 2.162.274 2.984.766.958.63 1.697 1.834 1.697 3.339 0 1.588-.739 2.956-1.615 3.531-.958.63-2.546.766-4.407.766h-1.204l7.473 13.823h7.555.821l11.77-17.16v17.19h7.336v-28.686h-.055"/><path d="m149.84 22.664c-2.628 4.434-7.418 7.172-12.838 7.172-8.978 0-15.11-7.172-15.11-14.918 0-7.336 5.666-14.836 15.03-14.836 5.83 0 9.881 2.901 12.235 6.186l-5.967 3.996c-1.095-1.861-3.12-3.723-6.323-3.723-4.927 0-7.664 4.297-7.664 8.376 0 4.352 2.956 8.513 7.719 8.513 4.325 0 6.816-4.653 6.816-4.653l6.104 3.887"/></g></svg>
